<?xml version="1.0" encoding="UTF-8" standalone="no"?>
<svg width="91px" height="50px" viewBox="0 0 91 50" version="1.1" xmlns="http://www.w3.org/2000/svg" xmlns:xlink="http://www.w3.org/1999/xlink" xmlns:sketch="http://www.bohemiancoding.com/sketch/ns">
    <!-- Generator: Sketch 3.5.1 (25234) - http://www.bohemiancoding.com/sketch -->
    <title>Group 2</title>
    <desc>Created with Sketch.</desc>
    <defs></defs>
    <g id="Page-1" stroke="none" stroke-width="1" fill="none" fill-rule="evenodd" sketch:type="MSPage">
        <path d="M0.278333333,29.8733333 C1.11645833,30.4320833 1.84770833,30.7975 2.85708333,30.7975 C4.23270833,30.7975 4.70520833,30.0239583 4.70520833,28.175625 L4.70520833,19.9022917 L7.47770833,19.9022917 L7.47770833,28.4979167 C7.47770833,31.850625 5.90895833,33.311875 3.09375,33.311875 C1.954375,33.311875 0.858541667,32.925 0.278333333,32.5597917 L0.278333333,29.8733333" id="Fill-1" fill="#FFFFFF" sketch:type="MSShapeGroup"></path>
        <path d="M18.6870833,19.9025 L20.9647917,28.7777083 L23.1354167,19.9025 L25.8427083,19.9025 L22.4041667,33.096875 L19.8904167,33.096875 L17.5691667,24.39375 L15.2485417,33.096875 L12.7339583,33.096875 L9.29604167,19.9025 L12.0679167,19.9025 L14.2172917,28.7777083 L16.538125,19.9025 L18.6870833,19.9025" id="Fill-2" fill="#FFFFFF" sketch:type="MSShapeGroup"></path>
        <path d="M32.79625,21.3852083 L29.6372917,21.3852083 L29.6372917,26.30625 L32.79625,26.30625 C34.5802083,26.30625 35.5470833,25.339375 35.5470833,23.8564583 C35.5470833,22.3525 34.5802083,21.3852083 32.79625,21.3852083 M29.6372917,27.810625 L29.6372917,33.0970833 L27.9395833,33.0970833 L27.9395833,19.9027083 L32.8177083,19.9027083 C35.4827083,19.9027083 37.223125,21.25625 37.223125,23.8564583 C37.223125,26.4352083 35.4827083,27.810625 32.8177083,27.810625 L29.6372917,27.810625" id="Fill-3" fill="#FFFFFF" sketch:type="MSShapeGroup"></path>
        <path d="M39.6352083,19.9025 L41.3325,19.9025 L41.3325,31.57125 L48.0591667,31.57125 L48.0591667,33.096875 L39.6352083,33.096875 L39.6352083,19.9025" id="Fill-4" fill="#FFFFFF" sketch:type="MSShapeGroup"></path>
        <path d="M50.78875,27.6385417 L55.0864583,27.6385417 L52.9375,22.0083333 L50.78875,27.6385417 L50.78875,27.6385417 Z M53.7541667,19.9022917 L58.9120833,33.0966667 L57.1927083,33.0966667 L55.6666667,29.1210417 L50.2304167,29.1210417 L48.7260417,33.0966667 L47.0064583,33.0966667 L52.164375,19.9022917 L53.7541667,19.9022917 L53.7541667,19.9022917 Z" id="Fill-5" fill="#FFFFFF" sketch:type="MSShapeGroup"></path>
        <path d="M67.2722917,19.9025 L69.0770833,19.9025 L64.26375,27.66 L64.26375,33.096875 L62.5872917,33.096875 L62.5872917,27.66 L57.8166667,19.9025 L59.6647917,19.9025 L63.4683333,26.134375 L67.2722917,19.9025" id="Fill-6" fill="#FFFFFF" sketch:type="MSShapeGroup"></path>
        <path d="M78.8558333,19.9025 L78.8558333,21.4066667 L72.1297917,21.4066667 L72.1297917,25.575625 L78.233125,25.575625 L78.233125,27.0795833 L72.1297917,27.0795833 L72.1297917,31.57125 L78.8558333,31.57125 L78.8558333,33.096875 L70.4535417,33.096875 L70.4535417,19.9025 L78.8558333,19.9025" id="Fill-7" fill="#FFFFFF" sketch:type="MSShapeGroup"></path>
        <path d="M82.94,26.07 L86.0345833,26.07 C87.775,26.07 88.7852083,25.1889583 88.7852083,23.7277083 C88.7852083,22.2664583 87.775,21.385 86.0345833,21.385 L82.94,21.385 L82.94,26.07 L82.94,26.07 Z M82.94,27.5097917 L82.94,33.096875 L81.241875,33.096875 L81.241875,19.9025 L86.0770833,19.9025 C88.7420833,19.9025 90.4616667,21.2347917 90.4616667,23.7277083 C90.4616667,25.919375 89.1716667,27.144375 87.0872917,27.4454167 L90.9983333,33.096875 L89.064375,33.096875 L85.2822917,27.5097917 L82.94,27.5097917 L82.94,27.5097917 Z" id="Fill-8" fill="#FFFFFF" sketch:type="MSShapeGroup"></path>
    </g>
</svg>