<?xml version="1.0" encoding="UTF-8" standalone="no"?>
<svg width="230px" height="240px" viewBox="0 0 230 240" version="1.1" xmlns="http://www.w3.org/2000/svg" xmlns:xlink="http://www.w3.org/1999/xlink" xmlns:sketch="http://www.bohemiancoding.com/sketch/ns">
    <!-- Generator: Sketch 3.4.4 (17249) - http://www.bohemiancoding.com/sketch -->
    <title>Fill 9</title>
    <desc>Created with Sketch.</desc>
    <defs></defs>
    <g id="Page-1" stroke="none" stroke-width="1" fill="none" fill-rule="evenodd" sketch:type="MSPage">
        <path d="M20.924,123.087 C20.339,125.008 19.449,124.989 18.943,123.047 L17.992,119.629 C17.992,119.629 16.704,114.682 14.51,108.872 C13.83,107.077 13.215,104.976 11.903,103.516 C10.096,101.511 7.188,100.775 4.645,101.688 C2.278,102.537 0.545,104.719 0.252,107.218 C0.007,109.319 0.526,111.627 0.82,113.703 C1.724,120.167 6.386,145.674 9.255,151.206 C12.076,156.633 18.255,159.652 24.014,156.614 C29.345,153.795 31.838,147.188 34.017,141.952 C36.765,135.36 50.544,97.312 50.544,97.312 C51.911,93.536 52.969,93.733 52.896,97.746 C52.896,97.746 52.218,135.004 52.094,151.996 C52.047,158.306 52.545,169.733 54.347,175.823 C55.543,179.867 57.644,183.636 61.051,186.225 C64.311,188.698 68.51,189.863 72.585,189.39 C74.11,189.214 76.65,188.425 78.358,187.481 C80.952,186.048 83.079,183.967 84.906,181.659 C89.018,176.458 92.07,170.367 95.064,164.486 C101.741,151.353 118.923,110.833 118.923,110.833 C120.489,107.138 121.67,107.396 121.546,111.408 C121.546,111.408 119.433,179.585 119.35,205.672 C119.331,212.067 120.567,218.624 122.923,224.623 C125.141,230.278 129.114,235.148 134.718,237.682 C140.722,240.394 147.751,239.916 153.44,236.658 C157.846,234.136 161.181,230.198 163.806,225.912 C167.421,220.021 170.083,213.558 172.578,207.128 C177.78,193.722 182.062,179.964 186.313,166.236 C190.553,152.54 227.026,22.313 229.32,11.203 C229.58,9.937 229.826,8.709 229.651,7.403 C229.31,4.832 227.651,2.352 225.372,1.386 C221.177,-0.39 216.588,1.274 214.63,5.248 C212.632,9.297 162.802,130.08 162.802,130.08 C161.272,133.791 160.027,133.543 160.036,129.529 C160.036,129.529 160.129,87.561 160.333,52.787 C160.44,33.926 151.143,23.384 138.154,21.28 C132.103,20.299 126.02,21.778 120.916,25.115 C115.547,28.621 111.626,33.98 108.677,39.594 C104.67,47.228 80.363,118.486 80.363,118.486 C79.068,122.285 77.933,122.11 77.84,118.097 C77.84,118.097 77.132,87.461 76.433,80.219 C75.365,69.158 72.839,50.877 58.473,50.015 C44.954,49.206 38.966,65.725 35.493,76.014 C33.216,82.756 21.957,119.711 21.957,119.711 L20.924,123.087" id="Fill-9" fill="#FFFFFF" sketch:type="MSShapeGroup"></path>
    </g>
</svg>